<svg width="1024" height="753" viewBox="0 0 1024 753" fill="none" xmlns="http://www.w3.org/2000/svg">
<g opacity="0.2" filter="url(#filter0_f_175_198)">
<ellipse cx="515.5" cy="37" rx="670.5" ry="350" fill="#338AF3"/>
</g>
<path d="M36.0349 273C37.5302 273 38.6622 273.63 39.4308 274.891C40.2134 276.138 40.6047 277.953 40.6047 280.336C40.6047 282.719 40.2134 284.541 39.4308 285.802C38.6622 287.063 37.5302 287.693 36.0349 287.693C34.5536 287.693 33.4216 287.063 32.639 285.802C31.8564 284.541 31.4651 282.719 31.4651 280.336C31.4651 277.967 31.8564 276.152 32.639 274.891C33.4216 273.63 34.5536 273 36.0349 273ZM32.9534 280.336C32.9534 282.026 33.1072 283.35 33.4146 284.306L38.0683 275.099C37.5791 274.448 36.9013 274.122 36.0349 274.122C35.0706 274.122 34.316 274.635 33.771 275.66C33.2259 276.672 32.9534 278.23 32.9534 280.336ZM36.0349 286.55C37.0131 286.55 37.7748 286.044 38.3198 285.033C38.8648 284.008 39.1373 282.442 39.1373 280.336C39.1373 278.549 38.9627 277.163 38.6133 276.18L33.9596 285.469C34.4627 286.19 35.1545 286.55 36.0349 286.55Z" fill="url(#paint0_linear_175_198)" fill-opacity="0.6"/>
<path d="M37.2926 310.135H40.3741V311.236H32.3874V310.135H35.9511V298.455L32.5551 300.471L31.9682 299.536L36.1607 296.959H37.2926V310.135Z" fill="url(#paint1_linear_175_198)" fill-opacity="0.6"/>
<path d="M36.0349 320.502C37.5302 320.502 38.6622 321.133 39.4308 322.393C40.2134 323.64 40.6047 325.455 40.6047 327.838C40.6047 330.221 40.2134 332.043 39.4308 333.304C38.6622 334.565 37.5302 335.195 36.0349 335.195C34.5536 335.195 33.4216 334.565 32.639 333.304C31.8564 332.043 31.4651 330.221 31.4651 327.838C31.4651 325.469 31.8564 323.654 32.639 322.393C33.4216 321.133 34.5536 320.502 36.0349 320.502ZM32.9534 327.838C32.9534 329.529 33.1072 330.852 33.4146 331.808L38.0683 322.601C37.5791 321.95 36.9013 321.624 36.0349 321.624C35.0706 321.624 34.316 322.137 33.771 323.162C33.2259 324.174 32.9534 325.732 32.9534 327.838ZM36.0349 334.052C37.0131 334.052 37.7748 333.546 38.3198 332.535C38.8648 331.51 39.1373 329.944 39.1373 327.838C39.1373 326.051 38.9627 324.665 38.6133 323.682L33.9596 332.971C34.4627 333.692 35.1545 334.052 36.0349 334.052Z" fill="url(#paint2_linear_175_198)" fill-opacity="0.6"/>
<path d="M37.2926 357.637H40.3741V358.738H32.3874V357.637H35.9511V345.957L32.5551 347.973L31.9682 347.038L36.1607 344.461H37.2926V357.637Z" fill="url(#paint3_linear_175_198)" fill-opacity="0.6"/>
<path d="M37.2926 381.388H40.3741V382.489H32.3874V381.388H35.9511V369.708L32.5551 371.724L31.9682 370.789L36.1607 368.212H37.2926V381.388Z" fill="url(#paint4_linear_175_198)" fill-opacity="0.6"/>
<path d="M36.0349 391.755C37.5302 391.755 38.6622 392.386 39.4308 393.646C40.2134 394.893 40.6047 396.708 40.6047 399.091C40.6047 401.474 40.2134 403.296 39.4308 404.557C38.6622 405.818 37.5302 406.448 36.0349 406.448C34.5536 406.448 33.4216 405.818 32.639 404.557C31.8564 403.296 31.4651 401.474 31.4651 399.091C31.4651 396.722 31.8564 394.907 32.639 393.646C33.4216 392.386 34.5536 391.755 36.0349 391.755ZM32.9534 399.091C32.9534 400.782 33.1072 402.105 33.4146 403.061L38.0683 393.854C37.5791 393.203 36.9013 392.878 36.0349 392.878C35.0706 392.878 34.316 393.39 33.771 394.415C33.2259 395.427 32.9534 396.985 32.9534 399.091ZM36.0349 405.305C37.0131 405.305 37.7748 404.8 38.3198 403.788C38.8648 402.763 39.1373 401.197 39.1373 399.091C39.1373 397.304 38.9627 395.919 38.6133 394.935L33.9596 404.225C34.4627 404.945 35.1545 405.305 36.0349 405.305Z" fill="url(#paint5_linear_175_198)" fill-opacity="0.6"/>
<path d="M37.2926 428.89H40.3741V429.992H32.3874V428.89H35.9511V417.21L32.5551 419.226L31.9682 418.291L36.1607 415.714H37.2926V428.89Z" fill="url(#paint6_linear_175_198)" fill-opacity="0.6"/>
<path d="M36.0349 439.257C37.5302 439.257 38.6622 439.888 39.4308 441.149C40.2134 442.396 40.6047 444.211 40.6047 446.594C40.6047 448.977 40.2134 450.798 39.4308 452.059C38.6622 453.32 37.5302 453.95 36.0349 453.95C34.5536 453.95 33.4216 453.32 32.639 452.059C31.8564 450.798 31.4651 448.977 31.4651 446.594C31.4651 444.224 31.8564 442.409 32.639 441.149C33.4216 439.888 34.5536 439.257 36.0349 439.257ZM32.9534 446.594C32.9534 448.284 33.1072 449.607 33.4146 450.563L38.0683 441.356C37.5791 440.705 36.9013 440.38 36.0349 440.38C35.0706 440.38 34.316 440.892 33.771 441.918C33.2259 442.929 32.9534 444.488 32.9534 446.594ZM36.0349 452.807C37.0131 452.807 37.7748 452.302 38.3198 451.29C38.8648 450.265 39.1373 448.699 39.1373 446.594C39.1373 444.806 38.9627 443.421 38.6133 442.437L33.9596 451.727C34.4627 452.447 35.1545 452.807 36.0349 452.807Z" fill="url(#paint7_linear_175_198)" fill-opacity="0.6"/>
<path d="M36.0349 463.008C37.5302 463.008 38.6622 463.639 39.4308 464.9C40.2134 466.147 40.6047 467.962 40.6047 470.345C40.6047 472.728 40.2134 474.549 39.4308 475.81C38.6622 477.071 37.5302 477.701 36.0349 477.701C34.5536 477.701 33.4216 477.071 32.639 475.81C31.8564 474.549 31.4651 472.728 31.4651 470.345C31.4651 467.975 31.8564 466.16 32.639 464.9C33.4216 463.639 34.5536 463.008 36.0349 463.008ZM32.9534 470.345C32.9534 472.035 33.1072 473.358 33.4146 474.314L38.0683 465.107C37.5791 464.456 36.9013 464.131 36.0349 464.131C35.0706 464.131 34.316 464.643 33.771 465.669C33.2259 466.68 32.9534 468.239 32.9534 470.345ZM36.0349 476.558C37.0131 476.558 37.7748 476.053 38.3198 475.041C38.8648 474.016 39.1373 472.451 39.1373 470.345C39.1373 468.557 38.9627 467.172 38.6133 466.188L33.9596 475.478C34.4627 476.198 35.1545 476.558 36.0349 476.558Z" fill="url(#paint8_linear_175_198)" fill-opacity="0.6"/>
<path d="M37.2926 500.143H40.3741V501.245H32.3874V500.143H35.9511V488.464L32.5551 490.48L31.9682 489.544L36.1607 486.967H37.2926V500.143Z" fill="url(#paint9_linear_175_198)" fill-opacity="0.6"/>
<path d="M36.0349 510.511C37.5302 510.511 38.6622 511.141 39.4308 512.402C40.2134 513.649 40.6047 515.464 40.6047 517.847C40.6047 520.23 40.2134 522.052 39.4308 523.312C38.6622 524.573 37.5302 525.204 36.0349 525.204C34.5536 525.204 33.4216 524.573 32.639 523.312C31.8564 522.052 31.4651 520.23 31.4651 517.847C31.4651 515.478 31.8564 513.663 32.639 512.402C33.4216 511.141 34.5536 510.511 36.0349 510.511ZM32.9534 517.847C32.9534 519.537 33.1072 520.86 33.4146 521.816L38.0683 512.61C37.5791 511.958 36.9013 511.633 36.0349 511.633C35.0706 511.633 34.316 512.145 33.771 513.171C33.2259 514.182 32.9534 515.741 32.9534 517.847ZM36.0349 524.061C37.0131 524.061 37.7748 523.555 38.3198 522.543C38.8648 521.518 39.1373 519.953 39.1373 517.847C39.1373 516.059 38.9627 514.674 38.6133 513.69L33.9596 522.98C34.4627 523.7 35.1545 524.061 36.0349 524.061Z" fill="url(#paint10_linear_175_198)" fill-opacity="0.6"/>
<path d="M37.2926 547.645H40.3741V548.747H32.3874V547.645H35.9511V535.966L32.5551 537.982L31.9682 537.046L36.1607 534.469H37.2926V547.645Z" fill="url(#paint11_linear_175_198)" fill-opacity="0.6"/>
<path d="M37.2926 571.396H40.3741V572.498H32.3874V571.396H35.9511V559.717L32.5551 561.733L31.9682 560.798L36.1607 558.221H37.2926V571.396Z" fill="url(#paint12_linear_175_198)" fill-opacity="0.6"/>
<path d="M74.9651 320.502C76.4604 320.502 77.5924 321.133 78.361 322.393C79.1436 323.64 79.5349 325.455 79.5349 327.838C79.5349 330.221 79.1436 332.043 78.361 333.304C77.5924 334.565 76.4604 335.195 74.9651 335.195C73.4838 335.195 72.3518 334.565 71.5692 333.304C70.7866 332.043 70.3953 330.221 70.3953 327.838C70.3953 325.469 70.7866 323.654 71.5692 322.393C72.3518 321.133 73.4838 320.502 74.9651 320.502ZM71.8836 327.838C71.8836 329.529 72.0374 330.852 72.3448 331.808L76.9985 322.601C76.5093 321.95 75.8315 321.624 74.9651 321.624C74.0008 321.624 73.2462 322.137 72.7012 323.162C72.1561 324.174 71.8836 325.732 71.8836 327.838ZM74.9651 334.052C75.9433 334.052 76.705 333.546 77.25 332.535C77.795 331.51 78.0675 329.944 78.0675 327.838C78.0675 326.051 77.8928 324.665 77.5435 323.682L72.8898 332.971C73.3929 333.692 74.0847 334.052 74.9651 334.052Z" fill="url(#paint13_linear_175_198)" fill-opacity="0.6"/>
<path d="M76.2228 357.637H79.3043V358.738H71.3176V357.637H74.8812V345.957L71.4853 347.973L70.8984 347.038L75.0909 344.461H76.2228V357.637Z" fill="url(#paint14_linear_175_198)" fill-opacity="0.6"/>
<path d="M74.9651 368.004C76.4604 368.004 77.5924 368.635 78.361 369.895C79.1436 371.142 79.5349 372.957 79.5349 375.34C79.5349 377.723 79.1436 379.545 78.361 380.806C77.5924 382.067 76.4604 382.697 74.9651 382.697C73.4838 382.697 72.3518 382.067 71.5692 380.806C70.7866 379.545 70.3953 377.723 70.3953 375.34C70.3953 372.971 70.7866 371.156 71.5692 369.895C72.3518 368.635 73.4838 368.004 74.9651 368.004ZM71.8836 375.34C71.8836 377.031 72.0374 378.354 72.3448 379.31L76.9985 370.103C76.5093 369.452 75.8315 369.126 74.9651 369.126C74.0008 369.126 73.2462 369.639 72.7012 370.664C72.1561 371.676 71.8836 373.234 71.8836 375.34ZM74.9651 381.554C75.9433 381.554 76.705 381.049 77.25 380.037C77.795 379.012 78.0675 377.446 78.0675 375.34C78.0675 373.553 77.8928 372.168 77.5435 371.184L72.8898 380.474C73.3929 381.194 74.0847 381.554 74.9651 381.554Z" fill="url(#paint15_linear_175_198)" fill-opacity="0.6"/>
<path d="M74.9651 391.755C76.4604 391.755 77.5924 392.386 78.361 393.646C79.1436 394.893 79.5349 396.708 79.5349 399.091C79.5349 401.474 79.1436 403.296 78.361 404.557C77.5924 405.818 76.4604 406.448 74.9651 406.448C73.4838 406.448 72.3518 405.818 71.5692 404.557C70.7866 403.296 70.3953 401.474 70.3953 399.091C70.3953 396.722 70.7866 394.907 71.5692 393.646C72.3518 392.386 73.4838 391.755 74.9651 391.755ZM71.8836 399.091C71.8836 400.782 72.0374 402.105 72.3448 403.061L76.9985 393.854C76.5093 393.203 75.8315 392.878 74.9651 392.878C74.0008 392.878 73.2462 393.39 72.7012 394.415C72.1561 395.427 71.8836 396.985 71.8836 399.091ZM74.9651 405.305C75.9433 405.305 76.705 404.8 77.25 403.788C77.795 402.763 78.0675 401.197 78.0675 399.091C78.0675 397.304 77.8928 395.919 77.5435 394.935L72.8898 404.225C73.3929 404.945 74.0847 405.305 74.9651 405.305Z" fill="url(#paint16_linear_175_198)" fill-opacity="0.6"/>
<path d="M76.2228 428.89H79.3043V429.992H71.3176V428.89H74.8812V417.21L71.4853 419.226L70.8984 418.291L75.0909 415.714H76.2228V428.89Z" fill="url(#paint17_linear_175_198)" fill-opacity="0.6"/>
<path d="M74.9651 439.257C76.4604 439.257 77.5924 439.888 78.361 441.149C79.1436 442.396 79.5349 444.211 79.5349 446.594C79.5349 448.977 79.1436 450.798 78.361 452.059C77.5924 453.32 76.4604 453.95 74.9651 453.95C73.4838 453.95 72.3518 453.32 71.5692 452.059C70.7866 450.798 70.3953 448.977 70.3953 446.594C70.3953 444.224 70.7866 442.409 71.5692 441.149C72.3518 439.888 73.4838 439.257 74.9651 439.257ZM71.8836 446.594C71.8836 448.284 72.0374 449.607 72.3448 450.563L76.9985 441.356C76.5093 440.705 75.8315 440.38 74.9651 440.38C74.0008 440.38 73.2462 440.892 72.7012 441.918C72.1561 442.929 71.8836 444.488 71.8836 446.594ZM74.9651 452.807C75.9433 452.807 76.705 452.302 77.25 451.29C77.795 450.265 78.0675 448.699 78.0675 446.594C78.0675 444.806 77.8928 443.421 77.5435 442.437L72.8898 451.727C73.3929 452.447 74.0847 452.807 74.9651 452.807Z" fill="url(#paint18_linear_175_198)" fill-opacity="0.6"/>
<path d="M76.2228 476.392H79.3043V477.494H71.3176V476.392H74.8812V464.713L71.4853 466.728L70.8984 465.793L75.0909 463.216H76.2228V476.392Z" fill="url(#paint19_linear_175_198)" fill-opacity="0.6"/>
<path d="M74.9651 486.76C76.4604 486.76 77.5924 487.39 78.361 488.651C79.1436 489.898 79.5349 491.713 79.5349 494.096C79.5349 496.479 79.1436 498.301 78.361 499.561C77.5924 500.822 76.4604 501.453 74.9651 501.453C73.4838 501.453 72.3518 500.822 71.5692 499.561C70.7866 498.301 70.3953 496.479 70.3953 494.096C70.3953 491.726 70.7866 489.911 71.5692 488.651C72.3518 487.39 73.4838 486.76 74.9651 486.76ZM71.8836 494.096C71.8836 495.786 72.0374 497.109 72.3448 498.065L76.9985 488.859C76.5093 488.207 75.8315 487.882 74.9651 487.882C74.0008 487.882 73.2462 488.394 72.7012 489.42C72.1561 490.431 71.8836 491.99 71.8836 494.096ZM74.9651 500.31C75.9433 500.31 76.705 499.804 77.25 498.792C77.795 497.767 78.0675 496.202 78.0675 494.096C78.0675 492.308 77.8928 490.923 77.5435 489.939L72.8898 499.229C73.3929 499.949 74.0847 500.31 74.9651 500.31Z" fill="url(#paint20_linear_175_198)" fill-opacity="0.6"/>
<path d="M74.9651 510.511C76.4604 510.511 77.5924 511.141 78.361 512.402C79.1436 513.649 79.5349 515.464 79.5349 517.847C79.5349 520.23 79.1436 522.052 78.361 523.312C77.5924 524.573 76.4604 525.204 74.9651 525.204C73.4838 525.204 72.3518 524.573 71.5692 523.312C70.7866 522.052 70.3953 520.23 70.3953 517.847C70.3953 515.478 70.7866 513.663 71.5692 512.402C72.3518 511.141 73.4838 510.511 74.9651 510.511ZM71.8836 517.847C71.8836 519.537 72.0374 520.86 72.3448 521.816L76.9985 512.61C76.5093 511.958 75.8315 511.633 74.9651 511.633C74.0008 511.633 73.2462 512.145 72.7012 513.171C72.1561 514.182 71.8836 515.741 71.8836 517.847ZM74.9651 524.061C75.9433 524.061 76.705 523.555 77.25 522.543C77.795 521.518 78.0675 519.953 78.0675 517.847C78.0675 516.059 77.8928 514.674 77.5435 513.69L72.8898 522.98C73.3929 523.7 74.0847 524.061 74.9651 524.061Z" fill="url(#paint21_linear_175_198)" fill-opacity="0.6"/>
<path d="M76.2228 547.645H79.3043V548.747H71.3176V547.645H74.8812V535.966L71.4853 537.982L70.8984 537.046L75.0909 534.469H76.2228V547.645Z" fill="url(#paint22_linear_175_198)" fill-opacity="0.6"/>
<path d="M74.9651 558.013C76.4604 558.013 77.5924 558.643 78.361 559.904C79.1436 561.151 79.5349 562.966 79.5349 565.349C79.5349 567.732 79.1436 569.554 78.361 570.815C77.5924 572.075 76.4604 572.706 74.9651 572.706C73.4838 572.706 72.3518 572.075 71.5692 570.815C70.7866 569.554 70.3953 567.732 70.3953 565.349C70.3953 562.98 70.7866 561.165 71.5692 559.904C72.3518 558.643 73.4838 558.013 74.9651 558.013ZM71.8836 565.349C71.8836 567.039 72.0374 568.362 72.3448 569.318L76.9985 560.112C76.5093 559.461 75.8315 559.135 74.9651 559.135C74.0008 559.135 73.2462 559.648 72.7012 560.673C72.1561 561.684 71.8836 563.243 71.8836 565.349ZM74.9651 571.563C75.9433 571.563 76.705 571.057 77.25 570.046C77.795 569.02 78.0675 567.455 78.0675 565.349C78.0675 563.562 77.8928 562.176 77.5435 561.192L72.8898 570.482C73.3929 571.202 74.0847 571.563 74.9651 571.563Z" fill="url(#paint23_linear_175_198)" fill-opacity="0.6"/>
<path d="M76.2228 595.147H79.3043V596.249H71.3176V595.147H74.8812V583.468L71.4853 585.484L70.8984 584.549L75.0909 581.972H76.2228V595.147Z" fill="url(#paint24_linear_175_198)" fill-opacity="0.6"/>
<path d="M76.2228 618.899H79.3043V620H71.3176V618.899H74.8812V607.219L71.4853 609.235L70.8984 608.3L75.0909 605.723H76.2228V618.899Z" fill="url(#paint25_linear_175_198)" fill-opacity="0.6"/>
<path d="M16.5698 344.253C18.0651 344.253 19.1971 344.884 19.9657 346.144C20.7483 347.391 21.1396 349.206 21.1396 351.589C21.1396 353.972 20.7483 355.794 19.9657 357.055C19.1971 358.316 18.0651 358.946 16.5698 358.946C15.0885 358.946 13.9565 358.316 13.1739 357.055C12.3913 355.794 12 353.972 12 351.589C12 349.22 12.3913 347.405 13.1739 346.144C13.9565 344.884 15.0885 344.253 16.5698 344.253ZM13.4883 351.589C13.4883 353.28 13.6421 354.603 13.9495 355.559L18.6032 346.352C18.114 345.701 17.4363 345.375 16.5698 345.375C15.6055 345.375 14.8509 345.888 14.3059 346.913C13.7608 347.925 13.4883 349.483 13.4883 351.589ZM16.5698 357.803C17.5481 357.803 18.3097 357.297 18.8547 356.286C19.3997 355.261 19.6722 353.695 19.6722 351.589C19.6722 349.802 19.4976 348.417 19.1482 347.433L14.4945 356.722C14.9976 357.443 15.6894 357.803 16.5698 357.803Z" fill="url(#paint26_linear_175_198)" fill-opacity="0.6"/>
<path d="M16.5698 368.004C18.0651 368.004 19.1971 368.635 19.9657 369.895C20.7483 371.142 21.1396 372.957 21.1396 375.34C21.1396 377.723 20.7483 379.545 19.9657 380.806C19.1971 382.067 18.0651 382.697 16.5698 382.697C15.0885 382.697 13.9565 382.067 13.1739 380.806C12.3913 379.545 12 377.723 12 375.34C12 372.971 12.3913 371.156 13.1739 369.895C13.9565 368.635 15.0885 368.004 16.5698 368.004ZM13.4883 375.34C13.4883 377.031 13.6421 378.354 13.9495 379.31L18.6032 370.103C18.114 369.452 17.4363 369.126 16.5698 369.126C15.6055 369.126 14.8509 369.639 14.3059 370.664C13.7608 371.676 13.4883 373.234 13.4883 375.34ZM16.5698 381.554C17.5481 381.554 18.3097 381.049 18.8547 380.037C19.3997 379.012 19.6722 377.446 19.6722 375.34C19.6722 373.553 19.4976 372.168 19.1482 371.184L14.4945 380.474C14.9976 381.194 15.6894 381.554 16.5698 381.554Z" fill="url(#paint27_linear_175_198)" fill-opacity="0.6"/>
<path d="M17.8276 405.139H20.909V406.24H12.9223V405.139H16.486V393.459L13.09 395.475L12.5031 394.54L16.6956 391.963H17.8276V405.139Z" fill="url(#paint28_linear_175_198)" fill-opacity="0.6"/>
<path d="M16.5698 415.506C18.0651 415.506 19.1971 416.137 19.9657 417.398C20.7483 418.644 21.1396 420.459 21.1396 422.842C21.1396 425.225 20.7483 427.047 19.9657 428.308C19.1971 429.569 18.0651 430.199 16.5698 430.199C15.0885 430.199 13.9565 429.569 13.1739 428.308C12.3913 427.047 12 425.225 12 422.842C12 420.473 12.3913 418.658 13.1739 417.398C13.9565 416.137 15.0885 415.506 16.5698 415.506ZM13.4883 422.842C13.4883 424.533 13.6421 425.856 13.9495 426.812L18.6032 417.605C18.114 416.954 17.4363 416.629 16.5698 416.629C15.6055 416.629 14.8509 417.141 14.3059 418.166C13.7608 419.178 13.4883 420.737 13.4883 422.842ZM16.5698 429.056C17.5481 429.056 18.3097 428.551 18.8547 427.539C19.3997 426.514 19.6722 424.948 19.6722 422.842C19.6722 421.055 19.4976 419.67 19.1482 418.686L14.4945 427.976C14.9976 428.696 15.6894 429.056 16.5698 429.056Z" fill="url(#paint29_linear_175_198)" fill-opacity="0.6"/>
<path d="M17.8276 452.641H20.909V453.743H12.9223V452.641H16.486V440.962L13.09 442.977L12.5031 442.042L16.6956 439.465H17.8276V452.641Z" fill="url(#paint30_linear_175_198)" fill-opacity="0.6"/>
<path d="M17.8276 476.392H20.909V477.494H12.9223V476.392H16.486V464.713L13.09 466.728L12.5031 465.793L16.6956 463.216H17.8276V476.392Z" fill="url(#paint31_linear_175_198)" fill-opacity="0.6"/>
<path d="M56.7577 310.135H59.8392V311.236H51.8525V310.135H55.4162V298.455L52.0202 300.471L51.4333 299.536L55.6258 296.959H56.7577V310.135Z" fill="url(#paint32_linear_175_198)" fill-opacity="0.6"/>
<path d="M55.5 320.502C56.9953 320.502 58.1273 321.133 58.8959 322.393C59.6785 323.64 60.0698 325.455 60.0698 327.838C60.0698 330.221 59.6785 332.043 58.8959 333.304C58.1273 334.565 56.9953 335.195 55.5 335.195C54.0187 335.195 52.8867 334.565 52.1041 333.304C51.3215 332.043 50.9302 330.221 50.9302 327.838C50.9302 325.469 51.3215 323.654 52.1041 322.393C52.8867 321.133 54.0187 320.502 55.5 320.502ZM52.4185 327.838C52.4185 329.529 52.5723 330.852 52.8797 331.808L57.5334 322.601C57.0442 321.95 56.3664 321.624 55.5 321.624C54.5357 321.624 53.7811 322.137 53.2361 323.162C52.691 324.174 52.4185 325.732 52.4185 327.838ZM55.5 334.052C56.4782 334.052 57.2399 333.546 57.7849 332.535C58.3299 331.51 58.6024 329.944 58.6024 327.838C58.6024 326.051 58.4277 324.665 58.0784 323.682L53.4247 332.971C53.9278 333.692 54.6196 334.052 55.5 334.052Z" fill="url(#paint33_linear_175_198)" fill-opacity="0.6"/>
<path d="M56.7577 357.637H59.8392V358.738H51.8525V357.637H55.4162V345.957L52.0202 347.973L51.4333 347.038L55.6258 344.461H56.7577V357.637Z" fill="url(#paint34_linear_175_198)" fill-opacity="0.6"/>
<path d="M56.7577 381.388H59.8392V382.489H51.8525V381.388H55.4162V369.708L52.0202 371.724L51.4333 370.789L55.6258 368.212H56.7577V381.388Z" fill="url(#paint35_linear_175_198)" fill-opacity="0.6"/>
<path d="M55.5 391.755C56.9953 391.755 58.1273 392.386 58.8959 393.646C59.6785 394.893 60.0698 396.708 60.0698 399.091C60.0698 401.474 59.6785 403.296 58.8959 404.557C58.1273 405.818 56.9953 406.448 55.5 406.448C54.0187 406.448 52.8867 405.818 52.1041 404.557C51.3215 403.296 50.9302 401.474 50.9302 399.091C50.9302 396.722 51.3215 394.907 52.1041 393.646C52.8867 392.386 54.0187 391.755 55.5 391.755ZM52.4185 399.091C52.4185 400.782 52.5723 402.105 52.8797 403.061L57.5334 393.854C57.0442 393.203 56.3664 392.878 55.5 392.878C54.5357 392.878 53.7811 393.39 53.2361 394.415C52.691 395.427 52.4185 396.985 52.4185 399.091ZM55.5 405.305C56.4782 405.305 57.2399 404.8 57.7849 403.788C58.3299 402.763 58.6024 401.197 58.6024 399.091C58.6024 397.304 58.4277 395.919 58.0784 394.935L53.4247 404.225C53.9278 404.945 54.6196 405.305 55.5 405.305Z" fill="url(#paint36_linear_175_198)" fill-opacity="0.6"/>
<path d="M56.7577 428.89H59.8392V429.992H51.8525V428.89H55.4162V417.21L52.0202 419.226L51.4333 418.291L55.6258 415.714H56.7577V428.89Z" fill="url(#paint37_linear_175_198)" fill-opacity="0.6"/>
<path d="M56.7577 452.641H59.8392V453.743H51.8525V452.641H55.4162V440.962L52.0202 442.977L51.4333 442.042L55.6258 439.465H56.7577V452.641Z" fill="url(#paint38_linear_175_198)" fill-opacity="0.6"/>
<path d="M55.5 463.008C56.9953 463.008 58.1273 463.639 58.8959 464.9C59.6785 466.147 60.0698 467.962 60.0698 470.345C60.0698 472.728 59.6785 474.549 58.8959 475.81C58.1273 477.071 56.9953 477.701 55.5 477.701C54.0187 477.701 52.8867 477.071 52.1041 475.81C51.3215 474.549 50.9302 472.728 50.9302 470.345C50.9302 467.975 51.3215 466.16 52.1041 464.9C52.8867 463.639 54.0187 463.008 55.5 463.008ZM52.4185 470.345C52.4185 472.035 52.5723 473.358 52.8797 474.314L57.5334 465.107C57.0442 464.456 56.3664 464.131 55.5 464.131C54.5357 464.131 53.7811 464.643 53.2361 465.669C52.691 466.68 52.4185 468.239 52.4185 470.345ZM55.5 476.558C56.4782 476.558 57.2399 476.053 57.7849 475.041C58.3299 474.016 58.6024 472.451 58.6024 470.345C58.6024 468.557 58.4277 467.172 58.0784 466.188L53.4247 475.478C53.9278 476.198 54.6196 476.558 55.5 476.558Z" fill="url(#paint39_linear_175_198)" fill-opacity="0.6"/>
<path d="M56.7577 500.143H59.8392V501.245H51.8525V500.143H55.4162V488.464L52.0202 490.48L51.4333 489.544L55.6258 486.967H56.7577V500.143Z" fill="url(#paint40_linear_175_198)" fill-opacity="0.6"/>
<path d="M55.5 510.511C56.9953 510.511 58.1273 511.141 58.8959 512.402C59.6785 513.649 60.0698 515.464 60.0698 517.847C60.0698 520.23 59.6785 522.052 58.8959 523.312C58.1273 524.573 56.9953 525.204 55.5 525.204C54.0187 525.204 52.8867 524.573 52.1041 523.312C51.3215 522.052 50.9302 520.23 50.9302 517.847C50.9302 515.478 51.3215 513.663 52.1041 512.402C52.8867 511.141 54.0187 510.511 55.5 510.511ZM52.4185 517.847C52.4185 519.537 52.5723 520.86 52.8797 521.816L57.5334 512.61C57.0442 511.958 56.3664 511.633 55.5 511.633C54.5357 511.633 53.7811 512.145 53.2361 513.171C52.691 514.182 52.4185 515.741 52.4185 517.847ZM55.5 524.061C56.4782 524.061 57.2399 523.555 57.7849 522.543C58.3299 521.518 58.6024 519.953 58.6024 517.847C58.6024 516.059 58.4277 514.674 58.0784 513.69L53.4247 522.98C53.9278 523.7 54.6196 524.061 55.5 524.061Z" fill="url(#paint41_linear_175_198)" fill-opacity="0.6"/>
<path d="M94.4302 296.751C95.9255 296.751 97.0575 297.381 97.8261 298.642C98.6087 299.889 99 301.704 99 304.087C99 306.47 98.6087 308.292 97.8261 309.553C97.0575 310.814 95.9255 311.444 94.4302 311.444C92.9489 311.444 91.8169 310.814 91.0343 309.553C90.2517 308.292 89.8604 306.47 89.8604 304.087C89.8604 301.718 90.2517 299.903 91.0343 298.642C91.8169 297.381 92.9489 296.751 94.4302 296.751ZM91.3487 304.087C91.3487 305.777 91.5024 307.101 91.8099 308.057L96.4636 298.85C95.9744 298.199 95.2966 297.873 94.4302 297.873C93.4659 297.873 92.7113 298.386 92.1663 299.411C91.6212 300.423 91.3487 301.981 91.3487 304.087ZM94.4302 310.301C95.4084 310.301 96.1701 309.795 96.7151 308.784C97.2601 307.759 97.5326 306.193 97.5326 304.087C97.5326 302.3 97.3579 300.914 97.0086 299.931L92.3549 309.22C92.858 309.941 93.5498 310.301 94.4302 310.301Z" fill="url(#paint42_linear_175_198)" fill-opacity="0.6"/>
<path d="M95.6879 333.886H98.7694V334.987H90.7827V333.886H94.3463V322.206L90.9504 324.222L90.3635 323.287L94.556 320.71H95.6879V333.886Z" fill="url(#paint43_linear_175_198)" fill-opacity="0.6"/>
<path d="M95.6879 357.637H98.7694V358.738H90.7827V357.637H94.3463V345.957L90.9504 347.973L90.3635 347.038L94.556 344.461H95.6879V357.637Z" fill="url(#paint44_linear_175_198)" fill-opacity="0.6"/>
<path d="M94.4302 368.004C95.9255 368.004 97.0575 368.635 97.8261 369.895C98.6087 371.142 99 372.957 99 375.34C99 377.723 98.6087 379.545 97.8261 380.806C97.0575 382.067 95.9255 382.697 94.4302 382.697C92.9489 382.697 91.8169 382.067 91.0343 380.806C90.2517 379.545 89.8604 377.723 89.8604 375.34C89.8604 372.971 90.2517 371.156 91.0343 369.895C91.8169 368.635 92.9489 368.004 94.4302 368.004ZM91.3487 375.34C91.3487 377.031 91.5024 378.354 91.8099 379.31L96.4636 370.103C95.9744 369.452 95.2966 369.126 94.4302 369.126C93.4659 369.126 92.7113 369.639 92.1663 370.664C91.6212 371.676 91.3487 373.234 91.3487 375.34ZM94.4302 381.554C95.4084 381.554 96.1701 381.049 96.7151 380.037C97.2601 379.012 97.5326 377.446 97.5326 375.34C97.5326 373.553 97.3579 372.168 97.0086 371.184L92.3549 380.474C92.858 381.194 93.5498 381.554 94.4302 381.554Z" fill="url(#paint45_linear_175_198)" fill-opacity="0.6"/>
<path d="M94.4302 391.755C95.9255 391.755 97.0575 392.386 97.8261 393.646C98.6087 394.893 99 396.708 99 399.091C99 401.474 98.6087 403.296 97.8261 404.557C97.0575 405.818 95.9255 406.448 94.4302 406.448C92.9489 406.448 91.8169 405.818 91.0343 404.557C90.2517 403.296 89.8604 401.474 89.8604 399.091C89.8604 396.722 90.2517 394.907 91.0343 393.646C91.8169 392.386 92.9489 391.755 94.4302 391.755ZM91.3487 399.091C91.3487 400.782 91.5024 402.105 91.8099 403.061L96.4636 393.854C95.9744 393.203 95.2966 392.878 94.4302 392.878C93.4659 392.878 92.7113 393.39 92.1663 394.415C91.6212 395.427 91.3487 396.985 91.3487 399.091ZM94.4302 405.305C95.4084 405.305 96.1701 404.8 96.7151 403.788C97.2601 402.763 97.5326 401.197 97.5326 399.091C97.5326 397.304 97.3579 395.919 97.0086 394.935L92.3549 404.225C92.858 404.945 93.5498 405.305 94.4302 405.305Z" fill="url(#paint46_linear_175_198)" fill-opacity="0.6"/>
<g opacity="0.6">
<path d="M922.93 -27C924.356 -27 925.436 -26.395 926.17 -25.1851C926.916 -23.9885 927.29 -22.2468 927.29 -19.9599C927.29 -17.673 926.916 -15.9246 926.17 -14.7147C925.436 -13.5048 924.356 -12.8998 922.93 -12.8998C921.517 -12.8998 920.437 -13.5048 919.69 -14.7147C918.943 -15.9246 918.57 -17.673 918.57 -19.9599C918.57 -22.2335 918.943 -23.9752 919.69 -25.1851C920.437 -26.395 921.517 -27 922.93 -27ZM919.99 -19.9599C919.99 -18.3378 920.137 -17.068 920.43 -16.1506L924.87 -24.9857C924.403 -25.6106 923.756 -25.923 922.93 -25.923C922.01 -25.923 921.29 -25.4311 920.77 -24.4472C920.25 -23.4766 919.99 -21.9808 919.99 -19.9599ZM922.93 -13.9967C923.863 -13.9967 924.59 -14.482 925.11 -15.4526C925.63 -16.4365 925.89 -17.9389 925.89 -19.9599C925.89 -21.675 925.723 -23.0046 925.39 -23.9486L920.95 -15.0338C921.43 -14.3424 922.09 -13.9967 922.93 -13.9967Z" fill="url(#paint47_linear_175_198)"/>
<path d="M924.13 8.63655H927.07V9.69356H919.45V8.63655H922.85V-2.57181L919.61 -0.637274L919.05 -1.53474L923.05 -4.00776H924.13V8.63655Z" fill="url(#paint48_linear_175_198)"/>
<path d="M922.93 18.5856C924.356 18.5856 925.436 19.1906 926.17 20.4005C926.916 21.5971 927.29 23.3389 927.29 25.6257C927.29 27.9126 926.916 29.661 926.17 30.8709C925.436 32.0808 924.356 32.6858 922.93 32.6858C921.517 32.6858 920.437 32.0808 919.69 30.8709C918.943 29.661 918.57 27.9126 918.57 25.6257C918.57 23.3521 918.943 21.6104 919.69 20.4005C920.437 19.1906 921.517 18.5856 922.93 18.5856ZM919.99 25.6257C919.99 27.2478 920.137 28.5176 920.43 29.435L924.87 20.5999C924.403 19.975 923.756 19.6626 922.93 19.6626C922.01 19.6626 921.29 20.1545 920.77 21.1384C920.25 22.109 919.99 23.6048 919.99 25.6257ZM922.93 31.5889C923.863 31.5889 924.59 31.1036 925.11 30.133C925.63 29.1491 925.89 27.6467 925.89 25.6257C925.89 23.9106 925.723 22.581 925.39 21.637L920.95 30.5518C921.43 31.2432 922.09 31.5889 922.93 31.5889Z" fill="url(#paint49_linear_175_198)"/>
<path d="M924.13 54.2221H927.07V55.2792H919.45V54.2221H922.85V43.0138L919.61 44.9483L919.05 44.0509L923.05 41.5778H924.13V54.2221Z" fill="url(#paint50_linear_175_198)"/>
<path d="M924.13 77.015H927.07V78.072H919.45V77.015H922.85V65.8066L919.61 67.7411L919.05 66.8437L923.05 64.3706H924.13V77.015Z" fill="url(#paint51_linear_175_198)"/>
<path d="M922.93 86.964C924.356 86.964 925.436 87.569 926.17 88.7789C926.916 89.9755 927.29 91.7173 927.29 94.0041C927.29 96.291 926.916 98.0394 926.17 99.2493C925.436 100.459 924.356 101.064 922.93 101.064C921.517 101.064 920.437 100.459 919.69 99.2493C918.943 98.0394 918.57 96.291 918.57 94.0041C918.57 91.7306 918.943 89.9888 919.69 88.7789C920.437 87.569 921.517 86.964 922.93 86.964ZM919.99 94.0041C919.99 95.6262 920.137 96.896 920.43 97.8134L924.87 88.9783C924.403 88.3534 923.756 88.041 922.93 88.041C922.01 88.041 921.29 88.5329 920.77 89.5168C920.25 90.4874 919.99 91.9832 919.99 94.0041ZM922.93 99.9673C923.863 99.9673 924.59 99.482 925.11 98.5114C925.63 97.5275 925.89 96.0251 925.89 94.0041C925.89 92.289 925.723 90.9594 925.39 90.0154L920.95 98.9302C921.43 99.6216 922.09 99.9673 922.93 99.9673Z" fill="url(#paint52_linear_175_198)"/>
<path d="M924.13 122.601H927.07V123.658H919.45V122.601H922.85V111.392L919.61 113.327L919.05 112.429L923.05 109.956H924.13V122.601Z" fill="url(#paint53_linear_175_198)"/>
<path d="M922.93 132.55C924.356 132.55 925.436 133.155 926.17 134.365C926.916 135.561 927.29 137.303 927.29 139.59C927.29 141.877 926.916 143.625 926.17 144.835C925.436 146.045 924.356 146.65 922.93 146.65C921.517 146.65 920.437 146.045 919.69 144.835C918.943 143.625 918.57 141.877 918.57 139.59C918.57 137.316 918.943 135.574 919.69 134.365C920.437 133.155 921.517 132.55 922.93 132.55ZM919.99 139.59C919.99 141.212 920.137 142.482 920.43 143.399L924.87 134.564C924.403 133.939 923.756 133.627 922.93 133.627C922.01 133.627 921.29 134.119 920.77 135.102C920.25 136.073 919.99 137.569 919.99 139.59ZM922.93 145.553C923.863 145.553 924.59 145.068 925.11 144.097C925.63 143.113 925.89 141.611 925.89 139.59C925.89 137.875 925.723 136.545 925.39 135.601L920.95 144.516C921.43 145.207 922.09 145.553 922.93 145.553Z" fill="url(#paint54_linear_175_198)"/>
<path d="M922.93 155.342C924.356 155.342 925.436 155.947 926.17 157.157C926.916 158.354 927.29 160.096 927.29 162.383C927.29 164.669 926.916 166.418 926.17 167.628C925.436 168.838 924.356 169.443 922.93 169.443C921.517 169.443 920.437 168.838 919.69 167.628C918.943 166.418 918.57 164.669 918.57 162.383C918.57 160.109 918.943 158.367 919.69 157.157C920.437 155.947 921.517 155.342 922.93 155.342ZM919.99 162.383C919.99 164.005 920.137 165.274 920.43 166.192L924.87 157.357C924.403 156.732 923.756 156.419 922.93 156.419C922.01 156.419 921.29 156.911 920.77 157.895C920.25 158.866 919.99 160.362 919.99 162.383ZM922.93 168.346C923.863 168.346 924.59 167.86 925.11 166.89C925.63 165.906 925.89 164.404 925.89 162.383C925.89 160.667 925.723 159.338 925.39 158.394L920.95 167.309C921.43 168 922.09 168.346 922.93 168.346Z" fill="url(#paint55_linear_175_198)"/>
<path d="M924.13 190.979H927.07V192.036H919.45V190.979H922.85V179.771L919.61 181.705L919.05 180.808L923.05 178.335H924.13V190.979Z" fill="url(#paint56_linear_175_198)"/>
<path d="M922.93 200.928C924.356 200.928 925.436 201.533 926.17 202.743C926.916 203.94 927.29 205.681 927.29 207.968C927.29 210.255 926.916 212.003 926.17 213.213C925.436 214.423 924.356 215.028 922.93 215.028C921.517 215.028 920.437 214.423 919.69 213.213C918.943 212.003 918.57 210.255 918.57 207.968C918.57 205.695 918.943 203.953 919.69 202.743C920.437 201.533 921.517 200.928 922.93 200.928ZM919.99 207.968C919.99 209.59 920.137 210.86 920.43 211.777L924.87 202.942C924.403 202.317 923.756 202.005 922.93 202.005C922.01 202.005 921.29 202.497 920.77 203.481C920.25 204.451 919.99 205.947 919.99 207.968ZM922.93 213.931C923.863 213.931 924.59 213.446 925.11 212.475C925.63 211.492 925.89 209.989 925.89 207.968C925.89 206.253 925.723 204.923 925.39 203.979L920.95 212.894C921.43 213.586 922.09 213.931 922.93 213.931Z" fill="url(#paint57_linear_175_198)"/>
<path d="M924.13 236.565H927.07V237.622H919.45V236.565H922.85V225.356L919.61 227.291L919.05 226.393L923.05 223.92H924.13V236.565Z" fill="url(#paint58_linear_175_198)"/>
<path d="M924.13 259.357H927.07V260.414H919.45V259.357H922.85V248.149L919.61 250.084L919.05 249.186L923.05 246.713H924.13V259.357Z" fill="url(#paint59_linear_175_198)"/>
<path d="M960.07 18.5856C961.497 18.5856 962.577 19.1906 963.31 20.4005C964.057 21.5971 964.43 23.3389 964.43 25.6257C964.43 27.9126 964.057 29.661 963.31 30.8709C962.577 32.0808 961.497 32.6858 960.07 32.6858C958.657 32.6858 957.577 32.0808 956.83 30.8709C956.084 29.661 955.71 27.9126 955.71 25.6257C955.71 23.3521 956.084 21.6104 956.83 20.4005C957.577 19.1906 958.657 18.5856 960.07 18.5856ZM957.13 25.6257C957.13 27.2478 957.277 28.5176 957.57 29.435L962.01 20.5999C961.543 19.975 960.897 19.6626 960.07 19.6626C959.15 19.6626 958.43 20.1545 957.91 21.1384C957.39 22.109 957.13 23.6048 957.13 25.6257ZM960.07 31.5889C961.003 31.5889 961.73 31.1036 962.25 30.133C962.77 29.1491 963.03 27.6467 963.03 25.6257C963.03 23.9106 962.863 22.581 962.53 21.637L958.09 30.5518C958.57 31.2432 959.23 31.5889 960.07 31.5889Z" fill="url(#paint60_linear_175_198)"/>
<path d="M961.27 54.2221H964.21V55.2792H956.59V54.2221H959.99V43.0138L956.75 44.9483L956.19 44.0509L960.19 41.5778H961.27V54.2221Z" fill="url(#paint61_linear_175_198)"/>
<path d="M960.07 64.1712C961.497 64.1712 962.577 64.7762 963.31 65.9861C964.057 67.1827 964.43 68.9245 964.43 71.2113C964.43 73.4982 964.057 75.2466 963.31 76.4565C962.577 77.6665 961.497 78.2714 960.07 78.2714C958.657 78.2714 957.577 77.6665 956.83 76.4565C956.084 75.2466 955.71 73.4982 955.71 71.2113C955.71 68.9378 956.084 67.196 956.83 65.9861C957.577 64.7762 958.657 64.1712 960.07 64.1712ZM957.13 71.2113C957.13 72.8334 957.277 74.1032 957.57 75.0206L962.01 66.1855C961.543 65.5606 960.897 65.2482 960.07 65.2482C959.15 65.2482 958.43 65.7401 957.91 66.724C957.39 67.6946 957.13 69.1904 957.13 71.2113ZM960.07 77.1745C961.003 77.1745 961.73 76.6892 962.25 75.7186C962.77 74.7347 963.03 73.2323 963.03 71.2113C963.03 69.4962 962.863 68.1666 962.53 67.2226L958.09 76.1374C958.57 76.8288 959.23 77.1745 960.07 77.1745Z" fill="url(#paint62_linear_175_198)"/>
<path d="M960.07 86.964C961.497 86.964 962.577 87.569 963.31 88.7789C964.057 89.9755 964.43 91.7173 964.43 94.0041C964.43 96.291 964.057 98.0394 963.31 99.2493C962.577 100.459 961.497 101.064 960.07 101.064C958.657 101.064 957.577 100.459 956.83 99.2493C956.084 98.0394 955.71 96.291 955.71 94.0041C955.71 91.7306 956.084 89.9888 956.83 88.7789C957.577 87.569 958.657 86.964 960.07 86.964ZM957.13 94.0041C957.13 95.6262 957.277 96.896 957.57 97.8134L962.01 88.9783C961.543 88.3534 960.897 88.041 960.07 88.041C959.15 88.041 958.43 88.5329 957.91 89.5168C957.39 90.4874 957.13 91.9832 957.13 94.0041ZM960.07 99.9673C961.003 99.9673 961.73 99.482 962.25 98.5114C962.77 97.5275 963.03 96.0251 963.03 94.0041C963.03 92.289 962.863 90.9594 962.53 90.0154L958.09 98.9302C958.57 99.6216 959.23 99.9673 960.07 99.9673Z" fill="url(#paint63_linear_175_198)"/>
<path d="M961.27 122.601H964.21V123.658H956.59V122.601H959.99V111.392L956.75 113.327L956.19 112.429L960.19 109.956H961.27V122.601Z" fill="url(#paint64_linear_175_198)"/>
<path d="M960.07 132.55C961.497 132.55 962.577 133.155 963.31 134.365C964.057 135.561 964.43 137.303 964.43 139.59C964.43 141.877 964.057 143.625 963.31 144.835C962.577 146.045 961.497 146.65 960.07 146.65C958.657 146.65 957.577 146.045 956.83 144.835C956.084 143.625 955.71 141.877 955.71 139.59C955.71 137.316 956.084 135.574 956.83 134.365C957.577 133.155 958.657 132.55 960.07 132.55ZM957.13 139.59C957.13 141.212 957.277 142.482 957.57 143.399L962.01 134.564C961.543 133.939 960.897 133.627 960.07 133.627C959.15 133.627 958.43 134.119 957.91 135.102C957.39 136.073 957.13 137.569 957.13 139.59ZM960.07 145.553C961.003 145.553 961.73 145.068 962.25 144.097C962.77 143.113 963.03 141.611 963.03 139.59C963.03 137.875 962.863 136.545 962.53 135.601L958.09 144.516C958.57 145.207 959.23 145.553 960.07 145.553Z" fill="url(#paint65_linear_175_198)"/>
<path d="M961.27 168.186H964.21V169.243H956.59V168.186H959.99V156.978L956.75 158.912L956.19 158.015L960.19 155.542H961.27V168.186Z" fill="url(#paint66_linear_175_198)"/>
<path d="M960.07 178.135C961.497 178.135 962.577 178.74 963.31 179.95C964.057 181.147 964.43 182.888 964.43 185.175C964.43 187.462 964.057 189.211 963.31 190.421C962.577 191.63 961.497 192.235 960.07 192.235C958.657 192.235 957.577 191.63 956.83 190.421C956.084 189.211 955.71 187.462 955.71 185.175C955.71 182.902 956.084 181.16 956.83 179.95C957.577 178.74 958.657 178.135 960.07 178.135ZM957.13 185.175C957.13 186.797 957.277 188.067 957.57 188.985L962.01 180.15C961.543 179.525 960.897 179.212 960.07 179.212C959.15 179.212 958.43 179.704 957.91 180.688C957.39 181.659 957.13 183.154 957.13 185.175ZM960.07 191.139C961.003 191.139 961.73 190.653 962.25 189.683C962.77 188.699 963.03 187.196 963.03 185.175C963.03 183.46 962.863 182.131 962.53 181.187L958.09 190.101C958.57 190.793 959.23 191.139 960.07 191.139Z" fill="url(#paint67_linear_175_198)"/>
<path d="M960.07 200.928C961.497 200.928 962.577 201.533 963.31 202.743C964.057 203.94 964.43 205.681 964.43 207.968C964.43 210.255 964.057 212.003 963.31 213.213C962.577 214.423 961.497 215.028 960.07 215.028C958.657 215.028 957.577 214.423 956.83 213.213C956.084 212.003 955.71 210.255 955.71 207.968C955.71 205.695 956.084 203.953 956.83 202.743C957.577 201.533 958.657 200.928 960.07 200.928ZM957.13 207.968C957.13 209.59 957.277 210.86 957.57 211.777L962.01 202.942C961.543 202.317 960.897 202.005 960.07 202.005C959.15 202.005 958.43 202.497 957.91 203.481C957.39 204.451 957.13 205.947 957.13 207.968ZM960.07 213.931C961.003 213.931 961.73 213.446 962.25 212.475C962.77 211.492 963.03 209.989 963.03 207.968C963.03 206.253 962.863 204.923 962.53 203.979L958.09 212.894C958.57 213.586 959.23 213.931 960.07 213.931Z" fill="url(#paint68_linear_175_198)"/>
<path d="M961.27 236.565H964.21V237.622H956.59V236.565H959.99V225.356L956.75 227.291L956.19 226.393L960.19 223.92H961.27V236.565Z" fill="url(#paint69_linear_175_198)"/>
<path d="M960.07 246.514C961.497 246.514 962.577 247.119 963.31 248.329C964.057 249.525 964.43 251.267 964.43 253.554C964.43 255.841 964.057 257.589 963.31 258.799C962.577 260.009 961.497 260.614 960.07 260.614C958.657 260.614 957.577 260.009 956.83 258.799C956.084 257.589 955.71 255.841 955.71 253.554C955.71 251.28 956.084 249.538 956.83 248.329C957.577 247.119 958.657 246.514 960.07 246.514ZM957.13 253.554C957.13 255.176 957.277 256.446 957.57 257.363L962.01 248.528C961.543 247.903 960.897 247.591 960.07 247.591C959.15 247.591 958.43 248.083 957.91 249.066C957.39 250.037 957.13 251.533 957.13 253.554ZM960.07 259.517C961.003 259.517 961.73 259.032 962.25 258.061C962.77 257.077 963.03 255.575 963.03 253.554C963.03 251.839 962.863 250.509 962.53 249.565L958.09 258.48C958.57 259.171 959.23 259.517 960.07 259.517Z" fill="url(#paint70_linear_175_198)"/>
<path d="M961.27 282.15H964.21V283.207H956.59V282.15H959.99V270.942L956.75 272.876L956.19 271.979L960.19 269.506H961.27V282.15Z" fill="url(#paint71_linear_175_198)"/>
<path d="M961.27 304.943H964.21V306H956.59V304.943H959.99V293.735L956.75 295.669L956.19 294.772L960.19 292.299H961.27V304.943Z" fill="url(#paint72_linear_175_198)"/>
<path d="M904.36 41.3784C905.786 41.3784 906.866 41.9834 907.599 43.1933C908.346 44.3899 908.719 46.1317 908.719 48.4185C908.719 50.7054 908.346 52.4538 907.599 53.6637C906.866 54.8736 905.786 55.4786 904.36 55.4786C902.946 55.4786 901.867 54.8736 901.12 53.6637C900.373 52.4538 900 50.7054 900 48.4185C900 46.145 900.373 44.4032 901.12 43.1933C901.867 41.9834 902.946 41.3784 904.36 41.3784ZM901.42 48.4185C901.42 50.0406 901.567 51.3104 901.86 52.2278L906.3 43.3927C905.833 42.7678 905.186 42.4554 904.36 42.4554C903.44 42.4554 902.72 42.9473 902.2 43.9312C901.68 44.9018 901.42 46.3976 901.42 48.4185ZM904.36 54.3817C905.293 54.3817 906.02 53.8964 906.54 52.9258C907.06 51.9419 907.319 50.4395 907.319 48.4185C907.319 46.7034 907.153 45.3738 906.82 44.4298L902.38 53.3446C902.86 54.036 903.52 54.3817 904.36 54.3817Z" fill="url(#paint73_linear_175_198)"/>
<path d="M904.36 64.1712C905.786 64.1712 906.866 64.7762 907.599 65.9861C908.346 67.1827 908.719 68.9245 908.719 71.2113C908.719 73.4982 908.346 75.2466 907.599 76.4565C906.866 77.6665 905.786 78.2714 904.36 78.2714C902.946 78.2714 901.867 77.6665 901.12 76.4565C900.373 75.2466 900 73.4982 900 71.2113C900 68.9378 900.373 67.196 901.12 65.9861C901.867 64.7762 902.946 64.1712 904.36 64.1712ZM901.42 71.2113C901.42 72.8334 901.567 74.1032 901.86 75.0206L906.3 66.1855C905.833 65.5606 905.186 65.2482 904.36 65.2482C903.44 65.2482 902.72 65.7401 902.2 66.724C901.68 67.6946 901.42 69.1904 901.42 71.2113ZM904.36 77.1745C905.293 77.1745 906.02 76.6892 906.54 75.7186C907.06 74.7347 907.319 73.2323 907.319 71.2113C907.319 69.4962 907.153 68.1666 906.82 67.2226L902.38 76.1374C902.86 76.8288 903.52 77.1745 904.36 77.1745Z" fill="url(#paint74_linear_175_198)"/>
<path d="M905.56 99.8078H908.499V100.865H900.88V99.8078H904.28V88.5994L901.04 90.5339L900.48 89.6365L904.48 87.1635H905.56V99.8078Z" fill="url(#paint75_linear_175_198)"/>
<path d="M904.36 109.757C905.786 109.757 906.866 110.362 907.599 111.572C908.346 112.768 908.719 114.51 908.719 116.797C908.719 119.084 908.346 120.832 907.599 122.042C906.866 123.252 905.786 123.857 904.36 123.857C902.946 123.857 901.867 123.252 901.12 122.042C900.373 120.832 900 119.084 900 116.797C900 114.523 900.373 112.782 901.12 111.572C901.867 110.362 902.946 109.757 904.36 109.757ZM901.42 116.797C901.42 118.419 901.567 119.689 901.86 120.606L906.3 111.771C905.833 111.146 905.186 110.834 904.36 110.834C903.44 110.834 902.72 111.326 902.2 112.31C901.68 113.28 901.42 114.776 901.42 116.797ZM904.36 122.76C905.293 122.76 906.02 122.275 906.54 121.304C907.06 120.32 907.319 118.818 907.319 116.797C907.319 115.082 907.153 113.752 906.82 112.808L902.38 121.723C902.86 122.414 903.52 122.76 904.36 122.76Z" fill="url(#paint76_linear_175_198)"/>
<path d="M905.56 145.393H908.499V146.45H900.88V145.393H904.28V134.185L901.04 136.12L900.48 135.222L904.48 132.749H905.56V145.393Z" fill="url(#paint77_linear_175_198)"/>
<path d="M905.56 168.186H908.499V169.243H900.88V168.186H904.28V156.978L901.04 158.912L900.48 158.015L904.48 155.542H905.56V168.186Z" fill="url(#paint78_linear_175_198)"/>
<path d="M942.7 8.63655H945.64V9.69356H938.02V8.63655H941.42V-2.57181L938.18 -0.637274L937.62 -1.53474L941.62 -4.00776H942.7V8.63655Z" fill="url(#paint79_linear_175_198)"/>
<path d="M941.5 18.5856C942.927 18.5856 944.006 19.1906 944.74 20.4005C945.486 21.5971 945.86 23.3389 945.86 25.6257C945.86 27.9126 945.486 29.661 944.74 30.8709C944.006 32.0808 942.927 32.6858 941.5 32.6858C940.087 32.6858 939.007 32.0808 938.26 30.8709C937.514 29.661 937.14 27.9126 937.14 25.6257C937.14 23.3521 937.514 21.6104 938.26 20.4005C939.007 19.1906 940.087 18.5856 941.5 18.5856ZM938.56 25.6257C938.56 27.2478 938.707 28.5176 939 29.435L943.44 20.5999C942.973 19.975 942.327 19.6626 941.5 19.6626C940.58 19.6626 939.86 20.1545 939.34 21.1384C938.82 22.109 938.56 23.6048 938.56 25.6257ZM941.5 31.5889C942.433 31.5889 943.16 31.1036 943.68 30.133C944.2 29.1491 944.46 27.6467 944.46 25.6257C944.46 23.9106 944.293 22.581 943.96 21.637L939.52 30.5518C940 31.2432 940.66 31.5889 941.5 31.5889Z" fill="url(#paint80_linear_175_198)"/>
<path d="M942.7 54.2221H945.64V55.2792H938.02V54.2221H941.42V43.0138L938.18 44.9483L937.62 44.0509L941.62 41.5778H942.7V54.2221Z" fill="url(#paint81_linear_175_198)"/>
<path d="M942.7 77.015H945.64V78.072H938.02V77.015H941.42V65.8066L938.18 67.7411L937.62 66.8437L941.62 64.3706H942.7V77.015Z" fill="url(#paint82_linear_175_198)"/>
<path d="M941.5 86.964C942.927 86.964 944.006 87.569 944.74 88.7789C945.486 89.9755 945.86 91.7173 945.86 94.0041C945.86 96.291 945.486 98.0394 944.74 99.2493C944.006 100.459 942.927 101.064 941.5 101.064C940.087 101.064 939.007 100.459 938.26 99.2493C937.514 98.0394 937.14 96.291 937.14 94.0041C937.14 91.7306 937.514 89.9888 938.26 88.7789C939.007 87.569 940.087 86.964 941.5 86.964ZM938.56 94.0041C938.56 95.6262 938.707 96.896 939 97.8134L943.44 88.9783C942.973 88.3534 942.327 88.041 941.5 88.041C940.58 88.041 939.86 88.5329 939.34 89.5168C938.82 90.4874 938.56 91.9832 938.56 94.0041ZM941.5 99.9673C942.433 99.9673 943.16 99.482 943.68 98.5114C944.2 97.5275 944.46 96.0251 944.46 94.0041C944.46 92.289 944.293 90.9594 943.96 90.0154L939.52 98.9302C940 99.6216 940.66 99.9673 941.5 99.9673Z" fill="url(#paint83_linear_175_198)"/>
<path d="M942.7 122.601H945.64V123.658H938.02V122.601H941.42V111.392L938.18 113.327L937.62 112.429L941.62 109.956H942.7V122.601Z" fill="url(#paint84_linear_175_198)"/>
<path d="M942.7 145.393H945.64V146.45H938.02V145.393H941.42V134.185L938.18 136.12L937.62 135.222L941.62 132.749H942.7V145.393Z" fill="url(#paint85_linear_175_198)"/>
<path d="M941.5 155.342C942.927 155.342 944.006 155.947 944.74 157.157C945.486 158.354 945.86 160.096 945.86 162.383C945.86 164.669 945.486 166.418 944.74 167.628C944.006 168.838 942.927 169.443 941.5 169.443C940.087 169.443 939.007 168.838 938.26 167.628C937.514 166.418 937.14 164.669 937.14 162.383C937.14 160.109 937.514 158.367 938.26 157.157C939.007 155.947 940.087 155.342 941.5 155.342ZM938.56 162.383C938.56 164.005 938.707 165.274 939 166.192L943.44 157.357C942.973 156.732 942.327 156.419 941.5 156.419C940.58 156.419 939.86 156.911 939.34 157.895C938.82 158.866 938.56 160.362 938.56 162.383ZM941.5 168.346C942.433 168.346 943.16 167.86 943.68 166.89C944.2 165.906 944.46 164.404 944.46 162.383C944.46 160.667 944.293 159.338 943.96 158.394L939.52 167.309C940 168 940.66 168.346 941.5 168.346Z" fill="url(#paint86_linear_175_198)"/>
<path d="M942.7 190.979H945.64V192.036H938.02V190.979H941.42V179.771L938.18 181.705L937.62 180.808L941.62 178.335H942.7V190.979Z" fill="url(#paint87_linear_175_198)"/>
<path d="M941.5 200.928C942.927 200.928 944.006 201.533 944.74 202.743C945.486 203.94 945.86 205.681 945.86 207.968C945.86 210.255 945.486 212.003 944.74 213.213C944.006 214.423 942.927 215.028 941.5 215.028C940.087 215.028 939.007 214.423 938.26 213.213C937.514 212.003 937.14 210.255 937.14 207.968C937.14 205.695 937.514 203.953 938.26 202.743C939.007 201.533 940.087 200.928 941.5 200.928ZM938.56 207.968C938.56 209.59 938.707 210.86 939 211.777L943.44 202.942C942.973 202.317 942.327 202.005 941.5 202.005C940.58 202.005 939.86 202.497 939.34 203.481C938.82 204.451 938.56 205.947 938.56 207.968ZM941.5 213.931C942.433 213.931 943.16 213.446 943.68 212.475C944.2 211.492 944.46 209.989 944.46 207.968C944.46 206.253 944.293 204.923 943.96 203.979L939.52 212.894C940 213.586 940.66 213.931 941.5 213.931Z" fill="url(#paint88_linear_175_198)"/>
<path d="M978.64 -4.2072C980.067 -4.2072 981.147 -3.60224 981.88 -2.39232C982.627 -1.1957 983 0.546049 983 2.83293C983 5.1198 982.627 6.86821 981.88 8.07812C981.147 9.28804 980.067 9.893 978.64 9.893C977.227 9.893 976.147 9.28804 975.401 8.07812C974.654 6.86821 974.281 5.1198 974.281 2.83293C974.281 0.559345 974.654 -1.1824 975.401 -2.39232C976.147 -3.60224 977.227 -4.2072 978.64 -4.2072ZM975.701 2.83293C975.701 4.45502 975.847 5.72477 976.14 6.64218L980.58 -2.19288C980.114 -2.81779 979.467 -3.13024 978.64 -3.13024C977.72 -3.13024 977 -2.63829 976.48 -1.6544C975.96 -0.683811 975.701 0.811966 975.701 2.83293ZM978.64 8.7961C979.574 8.7961 980.3 8.3108 980.82 7.34021C981.34 6.35632 981.6 4.85389 981.6 2.83293C981.6 1.11777 981.433 -0.211809 981.1 -1.15581L976.66 7.75902C977.14 8.45041 977.8 8.7961 978.64 8.7961Z" fill="url(#paint89_linear_175_198)"/>
<path d="M979.84 31.4293H982.78V32.4864H975.161V31.4293H978.56V20.221L975.321 22.1555L974.761 21.2581L978.76 18.785H979.84V31.4293Z" fill="url(#paint90_linear_175_198)"/>
<path d="M979.84 54.2221H982.78V55.2792H975.161V54.2221H978.56V43.0138L975.321 44.9483L974.761 44.0509L978.76 41.5778H979.84V54.2221Z" fill="url(#paint91_linear_175_198)"/>
<path d="M978.64 64.1712C980.067 64.1712 981.147 64.7762 981.88 65.9861C982.627 67.1827 983 68.9245 983 71.2113C983 73.4982 982.627 75.2466 981.88 76.4565C981.147 77.6665 980.067 78.2714 978.64 78.2714C977.227 78.2714 976.147 77.6665 975.401 76.4565C974.654 75.2466 974.281 73.4982 974.281 71.2113C974.281 68.9378 974.654 67.196 975.401 65.9861C976.147 64.7762 977.227 64.1712 978.64 64.1712ZM975.701 71.2113C975.701 72.8334 975.847 74.1032 976.14 75.0206L980.58 66.1855C980.114 65.5606 979.467 65.2482 978.64 65.2482C977.72 65.2482 977 65.7401 976.48 66.724C975.96 67.6946 975.701 69.1904 975.701 71.2113ZM978.64 77.1745C979.574 77.1745 980.3 76.6892 980.82 75.7186C981.34 74.7347 981.6 73.2323 981.6 71.2113C981.6 69.4962 981.433 68.1666 981.1 67.2226L976.66 76.1374C977.14 76.8288 977.8 77.1745 978.64 77.1745Z" fill="url(#paint92_linear_175_198)"/>
<path d="M978.64 86.964C980.067 86.964 981.147 87.569 981.88 88.7789C982.627 89.9755 983 91.7173 983 94.0041C983 96.291 982.627 98.0394 981.88 99.2493C981.147 100.459 980.067 101.064 978.64 101.064C977.227 101.064 976.147 100.459 975.401 99.2493C974.654 98.0394 974.281 96.291 974.281 94.0041C974.281 91.7306 974.654 89.9888 975.401 88.7789C976.147 87.569 977.227 86.964 978.64 86.964ZM975.701 94.0041C975.701 95.6262 975.847 96.896 976.14 97.8134L980.58 88.9783C980.114 88.3534 979.467 88.041 978.64 88.041C977.72 88.041 977 88.5329 976.48 89.5168C975.96 90.4874 975.701 91.9832 975.701 94.0041ZM978.64 99.9673C979.574 99.9673 980.3 99.482 980.82 98.5114C981.34 97.5275 981.6 96.0251 981.6 94.0041C981.6 92.289 981.433 90.9594 981.1 90.0154L976.66 98.9302C977.14 99.6216 977.8 99.9673 978.64 99.9673Z" fill="url(#paint93_linear_175_198)"/>
</g>
<defs>
<filter id="filter0_f_175_198" x="-555.19" y="-713.19" width="2141.38" height="1500.38" filterUnits="userSpaceOnUse" color-interpolation-filters="sRGB">
<feFlood flood-opacity="0" result="BackgroundImageFix"/>
<feBlend mode="normal" in="SourceGraphic" in2="BackgroundImageFix" result="shape"/>
<feGaussianBlur stdDeviation="200.095" result="effect1_foregroundBlur_175_198"/>
</filter>
<linearGradient id="paint0_linear_175_198" x1="55.5" y1="273" x2="55.5" y2="584.381" gradientUnits="userSpaceOnUse">
<stop stop-color="#F7DD43"/>
<stop offset="1" stop-color="#F7DD43" stop-opacity="0"/>
</linearGradient>
<linearGradient id="paint1_linear_175_198" x1="55.5" y1="273" x2="55.5" y2="584.381" gradientUnits="userSpaceOnUse">
<stop stop-color="#F7DD43"/>
<stop offset="1" stop-color="#F7DD43" stop-opacity="0"/>
</linearGradient>
<linearGradient id="paint2_linear_175_198" x1="55.5" y1="273" x2="55.5" y2="584.381" gradientUnits="userSpaceOnUse">
<stop stop-color="#F7DD43"/>
<stop offset="1" stop-color="#F7DD43" stop-opacity="0"/>
</linearGradient>
<linearGradient id="paint3_linear_175_198" x1="55.5" y1="273" x2="55.5" y2="584.381" gradientUnits="userSpaceOnUse">
<stop stop-color="#F7DD43"/>
<stop offset="1" stop-color="#F7DD43" stop-opacity="0"/>
</linearGradient>
<linearGradient id="paint4_linear_175_198" x1="55.5" y1="273" x2="55.5" y2="584.381" gradientUnits="userSpaceOnUse">
<stop stop-color="#F7DD43"/>
<stop offset="1" stop-color="#F7DD43" stop-opacity="0"/>
</linearGradient>
<linearGradient id="paint5_linear_175_198" x1="55.5" y1="273" x2="55.5" y2="584.381" gradientUnits="userSpaceOnUse">
<stop stop-color="#F7DD43"/>
<stop offset="1" stop-color="#F7DD43" stop-opacity="0"/>
</linearGradient>
<linearGradient id="paint6_linear_175_198" x1="55.5" y1="273" x2="55.5" y2="584.381" gradientUnits="userSpaceOnUse">
<stop stop-color="#F7DD43"/>
<stop offset="1" stop-color="#F7DD43" stop-opacity="0"/>
</linearGradient>
<linearGradient id="paint7_linear_175_198" x1="55.5" y1="273" x2="55.5" y2="584.381" gradientUnits="userSpaceOnUse">
<stop stop-color="#F7DD43"/>
<stop offset="1" stop-color="#F7DD43" stop-opacity="0"/>
</linearGradient>
<linearGradient id="paint8_linear_175_198" x1="55.5" y1="273" x2="55.5" y2="584.381" gradientUnits="userSpaceOnUse">
<stop stop-color="#F7DD43"/>
<stop offset="1" stop-color="#F7DD43" stop-opacity="0"/>
</linearGradient>
<linearGradient id="paint9_linear_175_198" x1="55.5" y1="273" x2="55.5" y2="584.381" gradientUnits="userSpaceOnUse">
<stop stop-color="#F7DD43"/>
<stop offset="1" stop-color="#F7DD43" stop-opacity="0"/>
</linearGradient>
<linearGradient id="paint10_linear_175_198" x1="55.5" y1="273" x2="55.5" y2="584.381" gradientUnits="userSpaceOnUse">
<stop stop-color="#F7DD43"/>
<stop offset="1" stop-color="#F7DD43" stop-opacity="0"/>
</linearGradient>
<linearGradient id="paint11_linear_175_198" x1="55.5" y1="273" x2="55.5" y2="584.381" gradientUnits="userSpaceOnUse">
<stop stop-color="#F7DD43"/>
<stop offset="1" stop-color="#F7DD43" stop-opacity="0"/>
</linearGradient>
<linearGradient id="paint12_linear_175_198" x1="55.5" y1="273" x2="55.5" y2="584.381" gradientUnits="userSpaceOnUse">
<stop stop-color="#F7DD43"/>
<stop offset="1" stop-color="#F7DD43" stop-opacity="0"/>
</linearGradient>
<linearGradient id="paint13_linear_175_198" x1="55.5" y1="273" x2="55.5" y2="584.381" gradientUnits="userSpaceOnUse">
<stop stop-color="#F7DD43"/>
<stop offset="1" stop-color="#F7DD43" stop-opacity="0"/>
</linearGradient>
<linearGradient id="paint14_linear_175_198" x1="55.5" y1="273" x2="55.5" y2="584.381" gradientUnits="userSpaceOnUse">
<stop stop-color="#F7DD43"/>
<stop offset="1" stop-color="#F7DD43" stop-opacity="0"/>
</linearGradient>
<linearGradient id="paint15_linear_175_198" x1="55.5" y1="273" x2="55.5" y2="584.381" gradientUnits="userSpaceOnUse">
<stop stop-color="#F7DD43"/>
<stop offset="1" stop-color="#F7DD43" stop-opacity="0"/>
</linearGradient>
<linearGradient id="paint16_linear_175_198" x1="55.5" y1="273" x2="55.5" y2="584.381" gradientUnits="userSpaceOnUse">
<stop stop-color="#F7DD43"/>
<stop offset="1" stop-color="#F7DD43" stop-opacity="0"/>
</linearGradient>
<linearGradient id="paint17_linear_175_198" x1="55.5" y1="273" x2="55.5" y2="584.381" gradientUnits="userSpaceOnUse">
<stop stop-color="#F7DD43"/>
<stop offset="1" stop-color="#F7DD43" stop-opacity="0"/>
</linearGradient>
<linearGradient id="paint18_linear_175_198" x1="55.5" y1="273" x2="55.5" y2="584.381" gradientUnits="userSpaceOnUse">
<stop stop-color="#F7DD43"/>
<stop offset="1" stop-color="#F7DD43" stop-opacity="0"/>
</linearGradient>
<linearGradient id="paint19_linear_175_198" x1="55.5" y1="273" x2="55.5" y2="584.381" gradientUnits="userSpaceOnUse">
<stop stop-color="#F7DD43"/>
<stop offset="1" stop-color="#F7DD43" stop-opacity="0"/>
</linearGradient>
<linearGradient id="paint20_linear_175_198" x1="55.5" y1="273" x2="55.5" y2="584.381" gradientUnits="userSpaceOnUse">
<stop stop-color="#F7DD43"/>
<stop offset="1" stop-color="#F7DD43" stop-opacity="0"/>
</linearGradient>
<linearGradient id="paint21_linear_175_198" x1="55.5" y1="273" x2="55.5" y2="584.381" gradientUnits="userSpaceOnUse">
<stop stop-color="#F7DD43"/>
<stop offset="1" stop-color="#F7DD43" stop-opacity="0"/>
</linearGradient>
<linearGradient id="paint22_linear_175_198" x1="55.5" y1="273" x2="55.5" y2="584.381" gradientUnits="userSpaceOnUse">
<stop stop-color="#F7DD43"/>
<stop offset="1" stop-color="#F7DD43" stop-opacity="0"/>
</linearGradient>
<linearGradient id="paint23_linear_175_198" x1="55.5" y1="273" x2="55.5" y2="584.381" gradientUnits="userSpaceOnUse">
<stop stop-color="#F7DD43"/>
<stop offset="1" stop-color="#F7DD43" stop-opacity="0"/>
</linearGradient>
<linearGradient id="paint24_linear_175_198" x1="55.5" y1="273" x2="55.5" y2="584.381" gradientUnits="userSpaceOnUse">
<stop stop-color="#F7DD43"/>
<stop offset="1" stop-color="#F7DD43" stop-opacity="0"/>
</linearGradient>
<linearGradient id="paint25_linear_175_198" x1="55.5" y1="273" x2="55.5" y2="584.381" gradientUnits="userSpaceOnUse">
<stop stop-color="#F7DD43"/>
<stop offset="1" stop-color="#F7DD43" stop-opacity="0"/>
</linearGradient>
<linearGradient id="paint26_linear_175_198" x1="55.5" y1="273" x2="55.5" y2="584.381" gradientUnits="userSpaceOnUse">
<stop stop-color="#F7DD43"/>
<stop offset="1" stop-color="#F7DD43" stop-opacity="0"/>
</linearGradient>
<linearGradient id="paint27_linear_175_198" x1="55.5" y1="273" x2="55.5" y2="584.381" gradientUnits="userSpaceOnUse">
<stop stop-color="#F7DD43"/>
<stop offset="1" stop-color="#F7DD43" stop-opacity="0"/>
</linearGradient>
<linearGradient id="paint28_linear_175_198" x1="55.5" y1="273" x2="55.5" y2="584.381" gradientUnits="userSpaceOnUse">
<stop stop-color="#F7DD43"/>
<stop offset="1" stop-color="#F7DD43" stop-opacity="0"/>
</linearGradient>
<linearGradient id="paint29_linear_175_198" x1="55.5" y1="273" x2="55.5" y2="584.381" gradientUnits="userSpaceOnUse">
<stop stop-color="#F7DD43"/>
<stop offset="1" stop-color="#F7DD43" stop-opacity="0"/>
</linearGradient>
<linearGradient id="paint30_linear_175_198" x1="55.5" y1="273" x2="55.5" y2="584.381" gradientUnits="userSpaceOnUse">
<stop stop-color="#F7DD43"/>
<stop offset="1" stop-color="#F7DD43" stop-opacity="0"/>
</linearGradient>
<linearGradient id="paint31_linear_175_198" x1="55.5" y1="273" x2="55.5" y2="584.381" gradientUnits="userSpaceOnUse">
<stop stop-color="#F7DD43"/>
<stop offset="1" stop-color="#F7DD43" stop-opacity="0"/>
</linearGradient>
<linearGradient id="paint32_linear_175_198" x1="55.5" y1="273" x2="55.5" y2="584.381" gradientUnits="userSpaceOnUse">
<stop stop-color="#F7DD43"/>
<stop offset="1" stop-color="#F7DD43" stop-opacity="0"/>
</linearGradient>
<linearGradient id="paint33_linear_175_198" x1="55.5" y1="273" x2="55.5" y2="584.381" gradientUnits="userSpaceOnUse">
<stop stop-color="#F7DD43"/>
<stop offset="1" stop-color="#F7DD43" stop-opacity="0"/>
</linearGradient>
<linearGradient id="paint34_linear_175_198" x1="55.5" y1="273" x2="55.5" y2="584.381" gradientUnits="userSpaceOnUse">
<stop stop-color="#F7DD43"/>
<stop offset="1" stop-color="#F7DD43" stop-opacity="0"/>
</linearGradient>
<linearGradient id="paint35_linear_175_198" x1="55.5" y1="273" x2="55.5" y2="584.381" gradientUnits="userSpaceOnUse">
<stop stop-color="#F7DD43"/>
<stop offset="1" stop-color="#F7DD43" stop-opacity="0"/>
</linearGradient>
<linearGradient id="paint36_linear_175_198" x1="55.5" y1="273" x2="55.5" y2="584.381" gradientUnits="userSpaceOnUse">
<stop stop-color="#F7DD43"/>
<stop offset="1" stop-color="#F7DD43" stop-opacity="0"/>
</linearGradient>
<linearGradient id="paint37_linear_175_198" x1="55.5" y1="273" x2="55.5" y2="584.381" gradientUnits="userSpaceOnUse">
<stop stop-color="#F7DD43"/>
<stop offset="1" stop-color="#F7DD43" stop-opacity="0"/>
</linearGradient>
<linearGradient id="paint38_linear_175_198" x1="55.5" y1="273" x2="55.5" y2="584.381" gradientUnits="userSpaceOnUse">
<stop stop-color="#F7DD43"/>
<stop offset="1" stop-color="#F7DD43" stop-opacity="0"/>
</linearGradient>
<linearGradient id="paint39_linear_175_198" x1="55.5" y1="273" x2="55.5" y2="584.381" gradientUnits="userSpaceOnUse">
<stop stop-color="#F7DD43"/>
<stop offset="1" stop-color="#F7DD43" stop-opacity="0"/>
</linearGradient>
<linearGradient id="paint40_linear_175_198" x1="55.5" y1="273" x2="55.5" y2="584.381" gradientUnits="userSpaceOnUse">
<stop stop-color="#F7DD43"/>
<stop offset="1" stop-color="#F7DD43" stop-opacity="0"/>
</linearGradient>
<linearGradient id="paint41_linear_175_198" x1="55.5" y1="273" x2="55.5" y2="584.381" gradientUnits="userSpaceOnUse">
<stop stop-color="#F7DD43"/>
<stop offset="1" stop-color="#F7DD43" stop-opacity="0"/>
</linearGradient>
<linearGradient id="paint42_linear_175_198" x1="55.5" y1="273" x2="55.5" y2="584.381" gradientUnits="userSpaceOnUse">
<stop stop-color="#F7DD43"/>
<stop offset="1" stop-color="#F7DD43" stop-opacity="0"/>
</linearGradient>
<linearGradient id="paint43_linear_175_198" x1="55.5" y1="273" x2="55.5" y2="584.381" gradientUnits="userSpaceOnUse">
<stop stop-color="#F7DD43"/>
<stop offset="1" stop-color="#F7DD43" stop-opacity="0"/>
</linearGradient>
<linearGradient id="paint44_linear_175_198" x1="55.5" y1="273" x2="55.5" y2="584.381" gradientUnits="userSpaceOnUse">
<stop stop-color="#F7DD43"/>
<stop offset="1" stop-color="#F7DD43" stop-opacity="0"/>
</linearGradient>
<linearGradient id="paint45_linear_175_198" x1="55.5" y1="273" x2="55.5" y2="584.381" gradientUnits="userSpaceOnUse">
<stop stop-color="#F7DD43"/>
<stop offset="1" stop-color="#F7DD43" stop-opacity="0"/>
</linearGradient>
<linearGradient id="paint46_linear_175_198" x1="55.5" y1="273" x2="55.5" y2="584.381" gradientUnits="userSpaceOnUse">
<stop stop-color="#F7DD43"/>
<stop offset="1" stop-color="#F7DD43" stop-opacity="0"/>
</linearGradient>
<linearGradient id="paint47_linear_175_198" x1="941.5" y1="-27" x2="941.5" y2="271.818" gradientUnits="userSpaceOnUse">
<stop stop-color="#F7DD43"/>
<stop offset="1" stop-color="#F7DD43" stop-opacity="0"/>
</linearGradient>
<linearGradient id="paint48_linear_175_198" x1="941.5" y1="-27" x2="941.5" y2="271.818" gradientUnits="userSpaceOnUse">
<stop stop-color="#F7DD43"/>
<stop offset="1" stop-color="#F7DD43" stop-opacity="0"/>
</linearGradient>
<linearGradient id="paint49_linear_175_198" x1="941.5" y1="-27" x2="941.5" y2="271.818" gradientUnits="userSpaceOnUse">
<stop stop-color="#F7DD43"/>
<stop offset="1" stop-color="#F7DD43" stop-opacity="0"/>
</linearGradient>
<linearGradient id="paint50_linear_175_198" x1="941.5" y1="-27" x2="941.5" y2="271.818" gradientUnits="userSpaceOnUse">
<stop stop-color="#F7DD43"/>
<stop offset="1" stop-color="#F7DD43" stop-opacity="0"/>
</linearGradient>
<linearGradient id="paint51_linear_175_198" x1="941.5" y1="-27" x2="941.5" y2="271.818" gradientUnits="userSpaceOnUse">
<stop stop-color="#F7DD43"/>
<stop offset="1" stop-color="#F7DD43" stop-opacity="0"/>
</linearGradient>
<linearGradient id="paint52_linear_175_198" x1="941.5" y1="-27" x2="941.5" y2="271.818" gradientUnits="userSpaceOnUse">
<stop stop-color="#F7DD43"/>
<stop offset="1" stop-color="#F7DD43" stop-opacity="0"/>
</linearGradient>
<linearGradient id="paint53_linear_175_198" x1="941.5" y1="-27" x2="941.5" y2="271.818" gradientUnits="userSpaceOnUse">
<stop stop-color="#F7DD43"/>
<stop offset="1" stop-color="#F7DD43" stop-opacity="0"/>
</linearGradient>
<linearGradient id="paint54_linear_175_198" x1="941.5" y1="-27" x2="941.5" y2="271.818" gradientUnits="userSpaceOnUse">
<stop stop-color="#F7DD43"/>
<stop offset="1" stop-color="#F7DD43" stop-opacity="0"/>
</linearGradient>
<linearGradient id="paint55_linear_175_198" x1="941.5" y1="-27" x2="941.5" y2="271.818" gradientUnits="userSpaceOnUse">
<stop stop-color="#F7DD43"/>
<stop offset="1" stop-color="#F7DD43" stop-opacity="0"/>
</linearGradient>
<linearGradient id="paint56_linear_175_198" x1="941.5" y1="-27" x2="941.5" y2="271.818" gradientUnits="userSpaceOnUse">
<stop stop-color="#F7DD43"/>
<stop offset="1" stop-color="#F7DD43" stop-opacity="0"/>
</linearGradient>
<linearGradient id="paint57_linear_175_198" x1="941.5" y1="-27" x2="941.5" y2="271.818" gradientUnits="userSpaceOnUse">
<stop stop-color="#F7DD43"/>
<stop offset="1" stop-color="#F7DD43" stop-opacity="0"/>
</linearGradient>
<linearGradient id="paint58_linear_175_198" x1="941.5" y1="-27" x2="941.5" y2="271.818" gradientUnits="userSpaceOnUse">
<stop stop-color="#F7DD43"/>
<stop offset="1" stop-color="#F7DD43" stop-opacity="0"/>
</linearGradient>
<linearGradient id="paint59_linear_175_198" x1="941.5" y1="-27" x2="941.5" y2="271.818" gradientUnits="userSpaceOnUse">
<stop stop-color="#F7DD43"/>
<stop offset="1" stop-color="#F7DD43" stop-opacity="0"/>
</linearGradient>
<linearGradient id="paint60_linear_175_198" x1="941.5" y1="-27" x2="941.5" y2="271.818" gradientUnits="userSpaceOnUse">
<stop stop-color="#F7DD43"/>
<stop offset="1" stop-color="#F7DD43" stop-opacity="0"/>
</linearGradient>
<linearGradient id="paint61_linear_175_198" x1="941.5" y1="-27" x2="941.5" y2="271.818" gradientUnits="userSpaceOnUse">
<stop stop-color="#F7DD43"/>
<stop offset="1" stop-color="#F7DD43" stop-opacity="0"/>
</linearGradient>
<linearGradient id="paint62_linear_175_198" x1="941.5" y1="-27" x2="941.5" y2="271.818" gradientUnits="userSpaceOnUse">
<stop stop-color="#F7DD43"/>
<stop offset="1" stop-color="#F7DD43" stop-opacity="0"/>
</linearGradient>
<linearGradient id="paint63_linear_175_198" x1="941.5" y1="-27" x2="941.5" y2="271.818" gradientUnits="userSpaceOnUse">
<stop stop-color="#F7DD43"/>
<stop offset="1" stop-color="#F7DD43" stop-opacity="0"/>
</linearGradient>
<linearGradient id="paint64_linear_175_198" x1="941.5" y1="-27" x2="941.5" y2="271.818" gradientUnits="userSpaceOnUse">
<stop stop-color="#F7DD43"/>
<stop offset="1" stop-color="#F7DD43" stop-opacity="0"/>
</linearGradient>
<linearGradient id="paint65_linear_175_198" x1="941.5" y1="-27" x2="941.5" y2="271.818" gradientUnits="userSpaceOnUse">
<stop stop-color="#F7DD43"/>
<stop offset="1" stop-color="#F7DD43" stop-opacity="0"/>
</linearGradient>
<linearGradient id="paint66_linear_175_198" x1="941.5" y1="-27" x2="941.5" y2="271.818" gradientUnits="userSpaceOnUse">
<stop stop-color="#F7DD43"/>
<stop offset="1" stop-color="#F7DD43" stop-opacity="0"/>
</linearGradient>
<linearGradient id="paint67_linear_175_198" x1="941.5" y1="-27" x2="941.5" y2="271.818" gradientUnits="userSpaceOnUse">
<stop stop-color="#F7DD43"/>
<stop offset="1" stop-color="#F7DD43" stop-opacity="0"/>
</linearGradient>
<linearGradient id="paint68_linear_175_198" x1="941.5" y1="-27" x2="941.5" y2="271.818" gradientUnits="userSpaceOnUse">
<stop stop-color="#F7DD43"/>
<stop offset="1" stop-color="#F7DD43" stop-opacity="0"/>
</linearGradient>
<linearGradient id="paint69_linear_175_198" x1="941.5" y1="-27" x2="941.5" y2="271.818" gradientUnits="userSpaceOnUse">
<stop stop-color="#F7DD43"/>
<stop offset="1" stop-color="#F7DD43" stop-opacity="0"/>
</linearGradient>
<linearGradient id="paint70_linear_175_198" x1="941.5" y1="-27" x2="941.5" y2="271.818" gradientUnits="userSpaceOnUse">
<stop stop-color="#F7DD43"/>
<stop offset="1" stop-color="#F7DD43" stop-opacity="0"/>
</linearGradient>
<linearGradient id="paint71_linear_175_198" x1="941.5" y1="-27" x2="941.5" y2="271.818" gradientUnits="userSpaceOnUse">
<stop stop-color="#F7DD43"/>
<stop offset="1" stop-color="#F7DD43" stop-opacity="0"/>
</linearGradient>
<linearGradient id="paint72_linear_175_198" x1="941.5" y1="-27" x2="941.5" y2="271.818" gradientUnits="userSpaceOnUse">
<stop stop-color="#F7DD43"/>
<stop offset="1" stop-color="#F7DD43" stop-opacity="0"/>
</linearGradient>
<linearGradient id="paint73_linear_175_198" x1="941.5" y1="-27" x2="941.5" y2="271.818" gradientUnits="userSpaceOnUse">
<stop stop-color="#F7DD43"/>
<stop offset="1" stop-color="#F7DD43" stop-opacity="0"/>
</linearGradient>
<linearGradient id="paint74_linear_175_198" x1="941.5" y1="-27" x2="941.5" y2="271.818" gradientUnits="userSpaceOnUse">
<stop stop-color="#F7DD43"/>
<stop offset="1" stop-color="#F7DD43" stop-opacity="0"/>
</linearGradient>
<linearGradient id="paint75_linear_175_198" x1="941.5" y1="-27" x2="941.5" y2="271.818" gradientUnits="userSpaceOnUse">
<stop stop-color="#F7DD43"/>
<stop offset="1" stop-color="#F7DD43" stop-opacity="0"/>
</linearGradient>
<linearGradient id="paint76_linear_175_198" x1="941.5" y1="-27" x2="941.5" y2="271.818" gradientUnits="userSpaceOnUse">
<stop stop-color="#F7DD43"/>
<stop offset="1" stop-color="#F7DD43" stop-opacity="0"/>
</linearGradient>
<linearGradient id="paint77_linear_175_198" x1="941.5" y1="-27" x2="941.5" y2="271.818" gradientUnits="userSpaceOnUse">
<stop stop-color="#F7DD43"/>
<stop offset="1" stop-color="#F7DD43" stop-opacity="0"/>
</linearGradient>
<linearGradient id="paint78_linear_175_198" x1="941.5" y1="-27" x2="941.5" y2="271.818" gradientUnits="userSpaceOnUse">
<stop stop-color="#F7DD43"/>
<stop offset="1" stop-color="#F7DD43" stop-opacity="0"/>
</linearGradient>
<linearGradient id="paint79_linear_175_198" x1="941.5" y1="-27" x2="941.5" y2="271.818" gradientUnits="userSpaceOnUse">
<stop stop-color="#F7DD43"/>
<stop offset="1" stop-color="#F7DD43" stop-opacity="0"/>
</linearGradient>
<linearGradient id="paint80_linear_175_198" x1="941.5" y1="-27" x2="941.5" y2="271.818" gradientUnits="userSpaceOnUse">
<stop stop-color="#F7DD43"/>
<stop offset="1" stop-color="#F7DD43" stop-opacity="0"/>
</linearGradient>
<linearGradient id="paint81_linear_175_198" x1="941.5" y1="-27" x2="941.5" y2="271.818" gradientUnits="userSpaceOnUse">
<stop stop-color="#F7DD43"/>
<stop offset="1" stop-color="#F7DD43" stop-opacity="0"/>
</linearGradient>
<linearGradient id="paint82_linear_175_198" x1="941.5" y1="-27" x2="941.5" y2="271.818" gradientUnits="userSpaceOnUse">
<stop stop-color="#F7DD43"/>
<stop offset="1" stop-color="#F7DD43" stop-opacity="0"/>
</linearGradient>
<linearGradient id="paint83_linear_175_198" x1="941.5" y1="-27" x2="941.5" y2="271.818" gradientUnits="userSpaceOnUse">
<stop stop-color="#F7DD43"/>
<stop offset="1" stop-color="#F7DD43" stop-opacity="0"/>
</linearGradient>
<linearGradient id="paint84_linear_175_198" x1="941.5" y1="-27" x2="941.5" y2="271.818" gradientUnits="userSpaceOnUse">
<stop stop-color="#F7DD43"/>
<stop offset="1" stop-color="#F7DD43" stop-opacity="0"/>
</linearGradient>
<linearGradient id="paint85_linear_175_198" x1="941.5" y1="-27" x2="941.5" y2="271.818" gradientUnits="userSpaceOnUse">
<stop stop-color="#F7DD43"/>
<stop offset="1" stop-color="#F7DD43" stop-opacity="0"/>
</linearGradient>
<linearGradient id="paint86_linear_175_198" x1="941.5" y1="-27" x2="941.5" y2="271.818" gradientUnits="userSpaceOnUse">
<stop stop-color="#F7DD43"/>
<stop offset="1" stop-color="#F7DD43" stop-opacity="0"/>
</linearGradient>
<linearGradient id="paint87_linear_175_198" x1="941.5" y1="-27" x2="941.5" y2="271.818" gradientUnits="userSpaceOnUse">
<stop stop-color="#F7DD43"/>
<stop offset="1" stop-color="#F7DD43" stop-opacity="0"/>
</linearGradient>
<linearGradient id="paint88_linear_175_198" x1="941.5" y1="-27" x2="941.5" y2="271.818" gradientUnits="userSpaceOnUse">
<stop stop-color="#F7DD43"/>
<stop offset="1" stop-color="#F7DD43" stop-opacity="0"/>
</linearGradient>
<linearGradient id="paint89_linear_175_198" x1="941.5" y1="-27" x2="941.5" y2="271.818" gradientUnits="userSpaceOnUse">
<stop stop-color="#F7DD43"/>
<stop offset="1" stop-color="#F7DD43" stop-opacity="0"/>
</linearGradient>
<linearGradient id="paint90_linear_175_198" x1="941.5" y1="-27" x2="941.5" y2="271.818" gradientUnits="userSpaceOnUse">
<stop stop-color="#F7DD43"/>
<stop offset="1" stop-color="#F7DD43" stop-opacity="0"/>
</linearGradient>
<linearGradient id="paint91_linear_175_198" x1="941.5" y1="-27" x2="941.5" y2="271.818" gradientUnits="userSpaceOnUse">
<stop stop-color="#F7DD43"/>
<stop offset="1" stop-color="#F7DD43" stop-opacity="0"/>
</linearGradient>
<linearGradient id="paint92_linear_175_198" x1="941.5" y1="-27" x2="941.5" y2="271.818" gradientUnits="userSpaceOnUse">
<stop stop-color="#F7DD43"/>
<stop offset="1" stop-color="#F7DD43" stop-opacity="0"/>
</linearGradient>
<linearGradient id="paint93_linear_175_198" x1="941.5" y1="-27" x2="941.5" y2="271.818" gradientUnits="userSpaceOnUse">
<stop stop-color="#F7DD43"/>
<stop offset="1" stop-color="#F7DD43" stop-opacity="0"/>
</linearGradient>
</defs>
</svg>
